<svg xmlns="http://www.w3.org/2000/svg" width="64" height="64" viewBox="0 0 64 64">
  <defs>
    <linearGradient id="t" x1="0" y1="0" x2="1" y2="1">
      <stop offset="0" stop-color="#23c98f"/>
      <stop offset="1" stop-color="#0a7d55"/>
    </linearGradient>
  </defs>
  <rect width="64" height="64" rx="15" fill="url(#t)"/>
  <g fill="#fff">
    <path d="M0 -2 C4 -6 8 -5 12 -2 C8 -2.5 4 -1 0 1 C-4 -1 -8 -2.5 -12 -2 C-8 -5 -4 -6 0 -2 Z" transform="translate(11 35) scale(0.48)" opacity="0.5"/>
    <path d="M0 -2 C4 -6 8 -5 12 -2 C8 -2.5 4 -1 0 1 C-4 -1 -8 -2.5 -12 -2 C-8 -5 -4 -6 0 -2 Z" transform="translate(53 35) scale(0.48)" opacity="0.5"/>
    <path d="M0 -2 C4 -6 8 -5 12 -2 C8 -2.5 4 -1 0 1 C-4 -1 -8 -2.5 -12 -2 C-8 -5 -4 -6 0 -2 Z" transform="translate(20 28) scale(0.78)" opacity="0.8"/>
    <path d="M0 -2 C4 -6 8 -5 12 -2 C8 -2.5 4 -1 0 1 C-4 -1 -8 -2.5 -12 -2 C-8 -5 -4 -6 0 -2 Z" transform="translate(44 28) scale(0.78)" opacity="0.8"/>
    <path d="M0 -2 C4 -6 8 -5 12 -2 C8 -2.5 4 -1 0 1 C-4 -1 -8 -2.5 -12 -2 C-8 -5 -4 -6 0 -2 Z" transform="translate(32 18.5) scale(1.22)"/>
  </g>
</svg>
